<svg width="340" height="280" viewBox="0 0 340 280" fill="none" xmlns="http://www.w3.org/2000/svg"><path opacity=".1" d="M3.67 179.717c5.379 20.832 16.757 38.839 34.737 47.569 37.38 18.141 121.68 8.785 184.597-1.955 32.545-5.555 61.151-20.885 81.931-42.458L3.669 179.717zM333.6 81.661h-34.521c-1.639 0-2.983-1.216-2.983-2.703 0-1.486 1.344-2.706 2.983-2.706h5.971c-1.642 0-2.983-1.216-2.983-2.706s1.341-2.703 2.983-2.703h-4.262c-1.641 0-2.985-1.216-2.985-2.706 0-1.489 1.344-2.702 2.985-2.702h18.018c-3.998-1.685-8.671-2.883-14.057-3.513-49.132-5.72-66.673-1.936-72.86 1.952a72.548 72.548 0 01-25.253 10.035c-30.312 5.67-87 12.49-138.381-2.172-25.537-7.302-44.518 5.021-55.893 25.62h327.233c-.427-5.986-1.706-11.516-4.053-16.354-.556.43-1.24.662-1.942.658zM.743 136.235a125.159 125.159 0 001.338 36.344l303.086 10.052a128.836 128.836 0 0021.059-29.115L.743 136.235zm119.874 25.927h-5.967c1.641 0 2.985 1.22 2.985 2.706s-1.344 2.703-2.985 2.703H80.129c-1.639 0-2.983-1.217-2.983-2.703 0-1.486 1.344-2.706 2.983-2.706h5.97c-1.64 0-2.982-1.216-2.982-2.703 0-1.486 1.341-2.706 2.982-2.706h-4.264c-1.641 0-2.985-1.216-2.985-2.703 0-1.486 1.344-2.706 2.985-2.706h34.521c1.641 0 2.982 1.217 2.982 2.706 0 1.49-1.341 2.703-2.982 2.703h4.261c1.642 0 2.983 1.217 2.983 2.706 0 1.49-1.341 2.703-2.983 2.703zm218.991-64.619L8.711 104.835c-4.026 9.381-6.695 19.988-7.925 30.979H333.81a117.826 117.826 0 004.807-19.745c.994-6.458 1.39-12.705.991-18.526zM67.97 121.453h-5.968c1.642 0 2.986 1.219 2.986 2.706 0 1.486-1.344 2.706-2.986 2.706h-34.52c-1.639 0-2.983-1.22-2.983-2.706 0-1.487 1.344-2.706 2.982-2.706h5.971c-1.641 0-2.982-1.217-2.982-2.703 0-1.487 1.34-2.706 2.982-2.706h-4.264c-1.642 0-2.986-1.217-2.986-2.703 0-1.486 1.344-2.706 2.986-2.706h34.52c1.642 0 2.983 1.216 2.983 2.706s-1.34 2.703-2.982 2.703h4.261c1.641 0 2.982 1.219 2.982 2.706 0 1.486-1.34 2.703-2.982 2.703z" fill="#9E9E9E"/><path d="M192.227 219.162c-13.512-2.039-37.949-4.525-61.678-.81 8.857-6.561 19.734-11.259 30.66-11.259 11.232 0 22.238 5.086 31.018 12.069z" fill="#F6F8FB"/><path opacity=".05" d="M110.599 132.549s-28.78 18.436-28.544 47.274c.235 28.838 28.544-47.274 28.544-47.274z" fill="#000"/><path d="M180.099 125.659H125.41a4.703 4.703 0 00-4.701 4.695v121.407l-.626.19-13.416 4.104a2.51 2.51 0 01-3.131-1.662L63.629 124.191a2.503 2.503 0 011.664-3.128l20.675-6.323 59.935-18.324 20.674-6.323a2.504 2.504 0 013.13 1.659l10.201 33.281.191.626z" fill="#F2F2F2"/><path d="M192.033 125.032l-12.294-40.11a5.327 5.327 0 00-6.653-3.532l-29.067 8.887-59.931 18.328-29.067 8.89a5.32 5.32 0 00-3.535 6.645l42.019 137.083a5.338 5.338 0 005.096 3.766c.527 0 1.052-.079 1.557-.235l19.925-6.092.627-.194v-.654l-.627.191-20.11 6.151a4.71 4.71 0 01-5.87-3.115L52.088 123.955a4.679 4.679 0 01.341-3.577 4.684 4.684 0 012.777-2.285l29.066-8.89 59.932-18.325 29.067-8.89a4.706 4.706 0 015.869 3.115l12.238 39.929.194.626h.652l-.191-.626z" fill="#3F3D56"/><path d="M89.697 121.166A2.83 2.83 0 0187 119.173l-4.037-13.17a2.81 2.81 0 01.902-2.998 2.82 2.82 0 01.97-.52l55.136-16.86a2.825 2.825 0 013.523 1.868l4.036 13.17a2.818 2.818 0 01-1.871 3.518l-55.137 16.861a2.807 2.807 0 01-.824.124z" fill="#BDBDBD"/><path d="M110.843 95.226a6.265 6.265 0 006.268-6.26 6.265 6.265 0 00-6.268-6.261 6.264 6.264 0 00-6.268 6.26 6.264 6.264 0 006.268 6.26z" fill="#BDBDBD"/><path d="M110.842 92.93a3.967 3.967 0 003.969-3.964 3.967 3.967 0 00-3.969-3.964 3.967 3.967 0 00-3.969 3.964 3.967 3.967 0 003.969 3.964z" fill="#fff"/><path d="M240.109 263.389H134.185a2.667 2.667 0 01-2.664-2.661V133.953a2.663 2.663 0 012.664-2.661h105.924a2.663 2.663 0 012.664 2.661v126.775a2.667 2.667 0 01-2.664 2.661z" fill="#E6E6E6"/><path d="M207.67 227.033h-37.45a5.415 5.415 0 01-5.31-4.257 5.4 5.4 0 01.03-2.442 93.43 93.43 0 000-43.684 5.386 5.386 0 011.022-4.65 5.415 5.415 0 014.258-2.049h37.45a5.478 5.478 0 013.526 1.296 5.417 5.417 0 011.846 3.254 156.582 156.582 0 010 47.981 5.416 5.416 0 01-1.846 3.255 5.483 5.483 0 01-3.526 1.296z" fill="#E6E6E6"/><path d="M170.53 173.123a2.534 2.534 0 00-2.012.982 2.637 2.637 0 00-.487 2.259 97.337 97.337 0 010 44.893 2.653 2.653 0 00.487 2.259 2.547 2.547 0 002.012.981h36.856a2.571 2.571 0 001.669-.615c.466-.398.777-.95.877-1.557a155.646 155.646 0 000-47.029 2.605 2.605 0 00-.877-1.557 2.572 2.572 0 00-1.669-.616H170.53z" fill="#fff"/><path d="M199.379 186.44h-19.717a2.787 2.787 0 01-1.998-.855 2.971 2.971 0 01-.829-2.063v-1.14a2.971 2.971 0 01.829-2.063 2.783 2.783 0 011.998-.855h19.717c.749 0 1.468.308 1.998.855.53.547.828 1.289.828 2.063v1.14c0 .774-.298 1.516-.828 2.063a2.787 2.787 0 01-1.998.855zm0 13.954h-19.717a2.787 2.787 0 01-1.998-.855 2.973 2.973 0 01-.829-2.063v-1.14a2.971 2.971 0 01.829-2.063 2.788 2.788 0 011.998-.856h19.717a2.788 2.788 0 011.998.856c.53.547.828 1.289.828 2.063v1.14c0 .774-.298 1.515-.828 2.063a2.787 2.787 0 01-1.998.855zm0 13.954h-19.717a2.784 2.784 0 01-1.998-.856 2.969 2.969 0 01-.829-2.062v-1.14a2.971 2.971 0 01.829-2.063 2.788 2.788 0 011.998-.856h19.717a2.788 2.788 0 011.998.856c.53.547.828 1.289.828 2.063v1.14c0 .774-.298 1.515-.828 2.062a2.784 2.784 0 01-1.998.856z" fill="#E6E6E6"/><path d="M198.232 175.659h-19.326a2.021 2.021 0 01-1.463-.64 2.245 2.245 0 01-.608-1.543v-3.88a2.245 2.245 0 01.608-1.542c.388-.409.914-.64 1.463-.64h19.326c.549 0 1.075.231 1.464.64.388.409.606.964.607 1.542v3.88a2.249 2.249 0 01-.607 1.543 2.025 2.025 0 01-1.464.64z" fill="#CCC"/><path d="M191.377 125.032H125.41a5.334 5.334 0 00-5.328 5.321v127.652l.627-.191V130.353a4.706 4.706 0 014.701-4.695h66.162l-.195-.626zm57.506 0H125.41a5.334 5.334 0 00-5.328 5.321v143.365a5.326 5.326 0 001.563 3.761 5.338 5.338 0 003.765 1.561h123.473a5.338 5.338 0 003.765-1.561 5.326 5.326 0 001.563-3.761V130.353a5.334 5.334 0 00-5.328-5.321zm4.701 148.686a4.697 4.697 0 01-1.378 3.319 4.712 4.712 0 01-3.323 1.377H125.41a4.714 4.714 0 01-3.323-1.377 4.697 4.697 0 01-1.378-3.319V130.353a4.706 4.706 0 014.701-4.695h123.473a4.704 4.704 0 014.701 4.695v143.365z" fill="#3F3D56"/><path d="M215.979 138.805h-57.663a2.82 2.82 0 01-2.821-2.817v-13.773a2.818 2.818 0 012.821-2.817h57.663a2.818 2.818 0 012.82 2.817v13.773a2.818 2.818 0 01-2.82 2.817z" fill="#BDBDBD"/><path d="M187.146 120.336a6.264 6.264 0 006.268-6.26 6.264 6.264 0 00-6.268-6.261 6.265 6.265 0 00-6.268 6.261 6.265 6.265 0 006.268 6.26z" fill="#BDBDBD"/><path d="M187.146 117.887a3.815 3.815 0 003.818-3.813 3.815 3.815 0 00-3.818-3.813 3.815 3.815 0 00-3.817 3.813 3.815 3.815 0 003.817 3.813z" fill="#fff"/><path d="M68.86 198.491H31.885a5.29 5.29 0 01-2.338-.536 5.436 5.436 0 01-2.876-6.163 94.605 94.605 0 000-43.684 5.455 5.455 0 011.01-4.65 5.322 5.322 0 014.204-2.049H68.86a5.368 5.368 0 013.482 1.296 5.433 5.433 0 011.822 3.254 158.585 158.585 0 010 47.981 5.433 5.433 0 01-1.822 3.255 5.374 5.374 0 01-3.482 1.296z" fill="#E6E6E6"/><path d="M31.667 144.581a2.607 2.607 0 00-2.041.982 2.62 2.62 0 00-.495 2.259 95.976 95.976 0 010 44.893 2.615 2.615 0 001.401 2.984c.354.17.742.258 1.135.256h37.39c.62.001 1.22-.218 1.693-.615.473-.398.788-.95.89-1.557a153.418 153.418 0 000-47.029 2.596 2.596 0 00-.89-1.557 2.63 2.63 0 00-1.693-.616h-37.39z" fill="#fff"/><path d="M60.548 164.876H41.325a2.684 2.684 0 01-1.948-.855 3.013 3.013 0 01-.808-2.063v-1.14c0-.774.291-1.516.808-2.063a2.685 2.685 0 011.948-.856h19.223a2.684 2.684 0 011.948.856c.517.547.808 1.289.809 2.063v1.14a3.013 3.013 0 01-.809 2.063 2.684 2.684 0 01-1.948.855zm0 13.954H41.325a2.685 2.685 0 01-1.948-.856 3.009 3.009 0 01-.808-2.062v-1.141c0-.773.291-1.515.808-2.062a2.685 2.685 0 011.948-.856h19.223a2.684 2.684 0 011.948.856 3.01 3.01 0 01.809 2.062v1.141a3.009 3.009 0 01-.809 2.062 2.685 2.685 0 01-1.948.856z" fill="#E6E6E6"/><path d="M60.6 147.117H41.274a2.103 2.103 0 01-1.464-.591 1.987 1.987 0 01-.607-1.424v-3.581c0-.534.22-1.046.607-1.424.389-.378.915-.59 1.464-.591H60.6a2.103 2.103 0 011.463.591c.388.378.607.89.607 1.424v3.581c0 .535-.219 1.047-.607 1.424-.388.378-.914.59-1.463.591z" fill="#CCC"/><path d="M265.816 160.664l-34.289-14.284a5.362 5.362 0 01-3.113-3.518 5.43 5.43 0 01.845-4.687 94.256 94.256 0 0016.73-40.373 5.425 5.425 0 015.028-4.585 5.336 5.336 0 012.373.408l34.289 14.283a5.42 5.42 0 012.732 2.543 5.44 5.44 0 01.444 3.712 158.014 158.014 0 01-18.377 44.344 5.405 5.405 0 01-6.662 2.157z" fill="#E6E6E6"/><path d="M252.25 95.943a2.607 2.607 0 00-2.269.13 2.625 2.625 0 00-1.332 1.9 96.362 96.362 0 01-17.385 41.506 2.616 2.616 0 00.14 3.293c.262.292.587.521.951.67l34.596 14.258a2.643 2.643 0 001.805.077 2.623 2.623 0 001.426-1.1 154.025 154.025 0 0018.213-43.482 2.58 2.58 0 00-.221-1.778 2.615 2.615 0 00-1.328-1.215L252.25 95.943z" fill="#fff"/><path d="M270.842 127.879l-18.071-7.414a2.793 2.793 0 01-1.516-1.502 2.744 2.744 0 01.001-2.12l.421-1a2.788 2.788 0 011.521-1.496 2.84 2.84 0 012.147.001l18.071 7.414a2.794 2.794 0 011.515 1.502 2.74 2.74 0 01-.001 2.12l-.421 1a2.79 2.79 0 01-1.52 1.496 2.84 2.84 0 01-2.147-.001zm-5.709 12.686l-18.071-7.415a2.79 2.79 0 01-1.515-1.501 2.74 2.74 0 01.001-2.12l.42-1a2.8 2.8 0 011.521-1.497c.688-.28 1.46-.28 2.147.001l18.071 7.415a2.788 2.788 0 011.516 1.501 2.744 2.744 0 01-.001 2.12l-.421 1a2.793 2.793 0 01-1.521 1.497c-.687.28-1.459.28-2.147-.001z" fill="#BDBDBD"/><path d="M277.939 109.699a2.234 2.234 0 01-.798-.15l-18.426-7.141a2.092 2.092 0 01-1.161-1.095 1.968 1.968 0 01-.015-1.562l1.419-3.364a2.086 2.086 0 011.143-1.114 2.216 2.216 0 011.63-.013l18.425 7.14c.523.204.94.598 1.161 1.096.22.498.226 1.059.015 1.561l-1.419 3.365c-.16.376-.433.699-.784.926a2.2 2.2 0 01-1.19.351z" fill="#CCC"/><path opacity=".6" d="M252.496 35.46c9.824 0 17.788-7.938 17.788-17.73 0-9.792-7.964-17.73-17.788-17.73s-17.788 7.938-17.788 17.73c0 9.792 7.964 17.73 17.788 17.73z" fill="#FFEB4F"/><path d="M284.596 4.128c-8.62-1.162-18.462 3.482-20.697 11.862a7.514 7.514 0 00-2.923-3.635 7.553 7.553 0 00-8.875.454 7.51 7.51 0 00-2.535 3.914l.987.705a130.264 130.264 0 0056.036-.253c-5.997-6.281-13.372-11.886-21.993-13.047zm-36.971 23.638c-8.621-1.161-18.463 3.483-20.697 11.863a7.514 7.514 0 00-2.923-3.635 7.553 7.553 0 00-8.875.454 7.505 7.505 0 00-2.535 3.914l.987.705a130.259 130.259 0 0056.035-.253c-5.996-6.281-13.371-11.886-21.992-13.048z" fill="#F0F0F0"/><path d="M322.868 32.236a.345.345 0 01-.106-.016C230.541 3.15 149.262 6.952 97.315 15.26a452.635 452.635 0 00-21.067 3.88 417.863 417.863 0 00-14.553 3.314c-1.31.322-2.64.658-4.067 1.028a324.828 324.828 0 00-4.83 1.281 332.07 332.07 0 00-8.064 2.306 10.78 10.78 0 00-.271.08l-.187.056-.323.096-.006.002-.283.087-.991.301c-8.56 2.63-13.267 4.502-13.314 4.52a.348.348 0 01-.26-.645c.048-.019 4.777-1.9 13.369-4.54.325-.1.655-.199.994-.3l.263-.082a.375.375 0 01.027-.01c.106-.03.213-.062.32-.094l.188-.057c.093-.028.185-.056.28-.082a325.6 325.6 0 018.068-2.306l.017-.005c1.605-.44 3.23-.87 4.829-1.282a348.062 348.062 0 016.727-1.673 417.878 417.878 0 0111.923-2.675 452.954 452.954 0 0121.1-3.887c52.022-8.32 133.418-12.127 225.768 16.984a.349.349 0 01.24.384.344.344 0 01-.344.295z" fill="#CCC"/></svg>